<?xml version="1.0" standalone="no"?>
<!DOCTYPE svg PUBLIC "-//W3C//DTD SVG 20010904//EN"
 "http://www.w3.org/TR/2001/REC-SVG-20010904/DTD/svg10.dtd">
<svg version="1.0" xmlns="http://www.w3.org/2000/svg"
 width="512.000000pt" height="512.000000pt" viewBox="0 0 512.000000 512.000000"
 preserveAspectRatio="xMidYMid meet">
<metadata>
Created by potrace 1.11, written by Peter Selinger 2001-2013
</metadata>
<g transform="translate(0.000000,512.000000) scale(0.100000,-0.100000)"
fill="#000000" stroke="none">
<path d="M301 3982 c-17 -6 -15 -2838 2 -2844 18 -6 1036 -2 1072 5 17 3 50 9
75 12 63 10 68 11 138 29 34 9 75 22 90 28 251 102 398 234 499 448 47 100 72
190 91 330 15 108 11 1065 -5 1172 -50 341 -221 582 -507 713 -75 35 -185 70
-250 79 -21 4 -41 8 -45 10 -21 13 -214 19 -653 20 -273 1 -501 0 -507 -2z
m1039 -386 c70 -11 133 -26 155 -35 198 -87 300 -200 352 -391 16 -58 18 -118
18 -595 0 -291 -3 -551 -8 -576 -20 -124 -71 -225 -157 -309 -85 -84 -164
-124 -305 -157 -54 -12 -164 -17 -420 -17 l-280 -1 -3 1035 c-1 569 0 1040 2
1045 4 12 572 12 646 1z"/>
<path d="M2596 3980 c-2 -3 34 -117 79 -255 45 -137 135 -412 200 -610 64
-198 132 -405 150 -460 18 -55 85 -262 150 -460 64 -198 125 -385 135 -415 10
-30 60 -183 111 -340 50 -157 96 -289 101 -295 5 -6 84 -10 193 -10 l185 0 50
155 c28 85 86 263 129 395 130 396 349 1067 418 1280 35 110 77 238 93 285 51
153 232 715 234 724 0 6 -85 10 -213 11 -205 0 -214 -1 -222 -20 -7 -16 -178
-575 -373 -1215 -19 -63 -62 -205 -96 -315 -128 -416 -142 -463 -174 -569 -18
-60 -35 -105 -38 -100 -3 5 -17 50 -32 99 -15 50 -31 101 -36 115 -5 14 -21
63 -34 110 -14 47 -63 211 -111 365 -47 154 -99 325 -116 380 -17 55 -34 111
-39 125 -5 14 -23 72 -40 130 -17 58 -47 155 -65 215 -19 61 -64 207 -100 325
-102 334 -107 350 -114 351 -20 4 -423 3 -425 -1z"/>
</g>
</svg>
